<svg fill="none" height="512pt" viewBox="0 -42 512 511" width="512pt" xmlns="http://www.w3.org/2000/svg"><path d="m275.734375 270.683594c-1.78125-2.210938-3.996094-3.992188-6.644531-5.339844-2.648438-1.34375-5.753906-2.019531-9.3125-2.019531-3.644532 0-6.792969.695312-9.441406 2.085937-2.652344 1.390625-4.84375 3.234375-6.578126 5.535156-1.738281 2.300782-3.019531 4.90625-3.84375 7.816407-.824218 2.910156-1.238281 5.882812-1.238281 8.921875 0 3.125.433594 6.144531 1.304688 9.050781.867187 2.910156 2.167969 5.492187 3.90625 7.75 1.734375 2.257813 3.929687 4.082031 6.578125 5.472656 2.648437 1.390625 5.796875 2.082031 9.441406 2.082031 3.648438 0 6.816406-.714843 9.507812-2.148437 2.691407-1.429687 4.886719-3.296875 6.578126-5.601563 1.695312-2.300781 2.953124-4.925781 3.777343-7.878906.824219-2.949218 1.238281-5.945312 1.238281-8.988281 0-3.125-.4375-6.140625-1.304687-9.050781-.863281-2.910156-2.1875-5.472656-3.96875-7.6875zm0 0"/><path d="m402.6875 144.847656-100.765625-81.304687c1.503906-4.664063 2.328125-9.632813 2.328125-14.792969 0-26.605469-21.644531-48.25-48.25-48.25s-48.25 21.644531-48.25 48.25c0 5.902344 1.070312 11.558594 3.019531 16.789062l-101.332031 79.308594h-109.4375v282.320313h512v-282.320313zm-173.238281-55.835937c7.621093 5.042969 16.746093 7.988281 26.550781 7.988281 10.542969 0 20.300781-3.40625 28.246094-9.167969l70.664062 57.015625h-196.796875zm-101.808594 233.1875c-2.824219 2.695312-6.039063 4.949219-9.640625 6.773437-3.605469 1.824219-7.46875 3.214844-11.59375 4.167969-4.125.957031-8.140625 1.433594-12.046875 1.433594-6.859375 0-13.136719-1.367188-18.820313-4.101563-5.6875-2.738281-10.597656-6.363281-14.71875-10.878906-4.125-4.515625-7.316406-9.636719-9.574218-15.367188-2.257813-5.730468-3.386719-11.550781-3.386719-17.453124 0-5.644532 1.0625-11.203126 3.191406-16.675782 2.128907-5.46875 5.230469-10.375 9.3125-14.714844 4.082031-4.34375 9.03125-7.859374 14.851563-10.554687 5.816406-2.6875 12.457031-4.035156 19.925781-4.035156 8.945313 0 16.695313 1.84375 23.25 5.535156s11.441406 8.574219 14.65625 14.652344l-19.410156 13.808593c-.867188-2.257812-2.019531-4.125-3.453125-5.601562-1.429688-1.476562-3.015625-2.648438-4.753906-3.519531-1.738282-.863281-3.539063-1.476563-5.40625-1.820313-1.867188-.347656-3.667969-.523437-5.402344-.523437-3.648438 0-6.796875.714843-9.445313 2.148437-2.648437 1.433594-4.816406 3.300782-6.511719 5.601563-1.691406 2.304687-2.953124 4.90625-3.777343 7.816406s-1.238281 5.796875-1.238281 8.660156c0 3.214844.480468 6.296875 1.433593 9.25s2.34375 5.554688 4.167969 7.8125c1.824219 2.257813 4.058594 4.0625 6.710938 5.40625 2.644531 1.347657 5.617187 2.019531 8.921874 2.019531 1.734376 0 3.515626-.195312 5.339844-.585937 1.824219-.390625 3.582032-1.042969 5.273438-1.957031 1.691406-.910156 3.210937-2.082032 4.558594-3.515625 1.347656-1.433594 2.410156-3.191407 3.191406-5.273438l20.710937 12.371094c-1.390625 3.390625-3.496093 6.429687-6.316406 9.121094zm82.640625 11.59375h-67.339844v-92.480469h25.402344v70.335938h41.9375zm93-28.332031c-2.34375 5.601562-5.601562 10.550781-9.769531 14.851562-4.167969 4.296875-9.140625 7.75-14.914063 10.351562-5.773437 2.605469-12.09375 3.910157-18.949218 3.910157-7.035157 0-13.417969-1.347657-19.148438-4.039063s-10.636719-6.230468-14.71875-10.613281c-4.082031-4.386719-7.25-9.398437-9.507812-15.046875-2.257813-5.644531-3.386719-11.460938-3.386719-17.453125 0-6.074219 1.171875-11.9375 3.519531-17.582031 2.34375-5.644532 5.621094-10.617188 9.832031-14.914063 4.210938-4.300781 9.203125-7.730469 14.980469-10.289062 5.773438-2.5625 12.089844-3.84375 18.949219-3.84375 7.035156 0 13.417969 1.347656 19.148437 4.035156 5.730469 2.695313 10.632813 6.253906 14.71875 10.683594 4.078125 4.429687 7.230469 9.464843 9.441406 15.109375 2.214844 5.644531 3.320313 11.417968 3.320313 17.320312.003906 6.082032-1.167969 11.921875-3.515625 17.519532zm79.652344 14.070312c-2.042969 3.777344-4.734375 6.792969-8.074219 9.050781-3.34375 2.261719-7.121094 3.886719-11.332031 4.886719-4.214844.996094-8.449219 1.496094-12.699219 1.496094-3.386719 0-6.863281-.261719-10.421875-.78125-3.5625-.519532-7.097656-1.257813-10.617188-2.214844-3.515624-.953125-6.902343-2.082031-10.15625-3.386719-3.257812-1.300781-6.277343-2.777343-9.054687-4.429687l10.941406-22.269532c3.039063 1.910157 6.207031 3.601563 9.507813 5.078126 2.777344 1.304687 5.925781 2.476562 9.445312 3.515624 3.515625 1.042969 7.097656 1.5625 10.746094 1.5625 2.773438 0 4.707031-.367187 5.792969-1.105468 1.085937-.734375 1.628906-1.714844 1.628906-2.929688 0-1.304687-.542969-2.410156-1.628906-3.320312-1.085938-.914063-2.582031-1.714844-4.492188-2.410156-1.910156-.695313-4.105469-1.390626-6.578125-2.085938-2.472656-.691406-5.101562-1.515625-7.878906-2.472656-4.082031-1.390625-7.601562-2.886719-10.550781-4.496094-2.953125-1.605469-5.386719-3.429688-7.292969-5.46875-1.914062-2.039062-3.324219-4.363281-4.234375-6.96875-.914063-2.605469-1.367187-5.601562-1.367187-8.988281 0-5.121094.929687-9.640625 2.800781-13.546875 1.863281-3.90625 4.40625-7.164063 7.617187-9.769532 3.210938-2.605468 6.882813-4.578124 11.007813-5.925781 4.125-1.347656 8.488281-2.019531 13.089843-2.019531 3.386719 0 6.6875.324219 9.898438.976562 3.210938.652344 6.316406 1.480469 9.3125 2.476563 2.996094 1 5.796875 2.082031 8.402344 3.253906 2.605468 1.175781 4.949218 2.28125 7.035156 3.324219l-10.941406 20.96875c-2.605469-1.5625-5.296875-2.949219-8.078125-4.167969-2.34375-1.042969-4.96875-2.019531-7.878907-2.929687-2.910156-.910156-5.753906-1.367188-8.53125-1.367188-2.257812 0-4.058593.347656-5.40625 1.042969-1.347656.695313-2.019531 1.867187-2.019531 3.515625 0 1.21875.390625 2.214844 1.171875 2.996094.785156.78125 1.910156 1.496094 3.386719 2.148437 1.480469.652344 3.277344 1.28125 5.40625 1.886719 2.128906.609375 4.539063 1.351562 7.230469 2.214844 4.253906 1.304687 8.097656 2.738281 11.527344 4.300781 3.429687 1.5625 6.359374 3.40625 8.792968 5.535156 2.429688 2.128907 4.296875 4.710938 5.597656 7.75 1.304688 3.039063 1.957032 6.730469 1.957032 11.070313-.003906 5.558594-1.023438 10.226562-3.0625 14.003906zm80.167968 14.261719h-65.90625v-92.480469h64.734376v22.144531h-39.335938v13.023438h33.601562v20.582031h-33.601562v14.585938h40.507812zm0 0 " fill="#d00b0b"/></svg>