<?xml version="1.0" encoding="iso-8859-1"?>
<!-- Generator: Adobe Illustrator 19.0.0, SVG Export Plug-In . SVG Version: 6.00 Build 0)  -->
<svg version="1.1" id="Capa_1" xmlns="http://www.w3.org/2000/svg" xmlns:xlink="http://www.w3.org/1999/xlink" x="0px" y="0px"
	 viewBox="0 0 396.505 396.505" style="enable-background:new 0 0 396.505 396.505;" xml:space="preserve">
<g>
	<g>
		<g>
			<path d="M205.852,183.4c-5.1,0.7-10.2,0.7-15.3,0l-9.1,195.3c0,0.3,0,0.6,0,0.9v0.2c0.1,4.6,1.9,8.9,5.2,12
				c6.7,6.5,17.4,6.2,23.8-0.5c3.1-3.2,4.8-7.7,4.5-12.4L205.852,183.4z"/>
			<path d="M236.352,22.7c-10.4-14.6-24-22.7-38.1-22.7c-14.1,0-27.7,8-38.1,22.7c-11.1,15.7-17.3,36.8-17.3,59.3
				c0,37.5,17.2,70.1,41.9,79.5c8.7,3.3,18.3,3.3,27,0c24.7-9.4,41.9-42,41.9-79.5C253.652,59.4,247.552,38.4,236.352,22.7z"/>
		</g>
	</g>
</g>
<g>
</g>
<g>
</g>
<g>
</g>
<g>
</g>
<g>
</g>
<g>
</g>
<g>
</g>
<g>
</g>
<g>
</g>
<g>
</g>
<g>
</g>
<g>
</g>
<g>
</g>
<g>
</g>
<g>
</g>
</svg>
